<svg width="82" height="114" viewBox="0 0 82 114" fill="none" xmlns="http://www.w3.org/2000/svg">
<rect x="6" y="77.5" width="70" height="8" fill="#58CC02"/>
<rect x="6" y="77.5" width="70" height="8" fill="black" fill-opacity="0.2"/>
<g filter="url(#filter0_dd_206_3644)">
<rect x="6" y="49" width="70" height="57" rx="28.5" fill="#58CC02"/>
</g>
<g clip-path="url(#clip0_206_3644)">
<mask id="mask0_206_3644" style="mask-type:luminance" maskUnits="userSpaceOnUse" x="26" y="63" width="30" height="29">
<path d="M56 63.5H26V91.5H56V63.5Z" fill="white"/>
</mask>
<g mask="url(#mask0_206_3644)">
<path d="M38.7521 64.9116C39.6598 63.0295 42.3402 63.0295 43.2479 64.9116L45.8539 70.3152C46.225 71.0847 46.9639 71.6109 47.8125 71.7099L53.7906 72.4076C55.9269 72.6569 56.7684 75.3114 55.1658 76.7459L50.8845 80.5785C50.224 81.1697 49.9267 82.067 50.1035 82.9357L51.2468 88.553C51.6684 90.624 49.4857 92.2487 47.6228 91.2506L42.1786 88.3339C41.4424 87.9395 40.5576 87.9395 39.8214 88.3339L34.3772 91.2506C32.5143 92.2487 30.3316 90.624 30.7532 88.553L31.8965 82.9357C32.0733 82.067 31.776 81.1697 31.1155 80.5785L26.8342 76.7459C25.2316 75.3114 26.0731 72.6569 28.2094 72.4076L34.1875 71.7099C35.0361 71.6109 35.775 71.0847 36.1461 70.3152L38.7521 64.9116Z" fill="white"/>
</g>
</g>
<rect x="1.5" y="1.85156" width="79" height="43" rx="9" fill="white"/>
<path d="M22.1459 20.5799C22.1033 20.1502 21.9204 19.8164 21.5973 19.5785C21.2741 19.3406 20.8356 19.2216 20.2816 19.2216C19.9052 19.2216 19.5873 19.2749 19.3281 19.3814C19.0689 19.4844 18.87 19.6282 18.7315 19.8129C18.5966 19.9975 18.5291 20.207 18.5291 20.4414C18.522 20.6367 18.5628 20.8072 18.6516 20.9528C18.7439 21.0984 18.87 21.2244 19.0298 21.331C19.1896 21.4339 19.3743 21.5245 19.5838 21.6026C19.7933 21.6772 20.017 21.7411 20.2549 21.7944L21.2351 22.0288C21.7109 22.1353 22.1477 22.2773 22.5454 22.4549C22.9432 22.6325 23.2876 22.8509 23.5788 23.1101C23.87 23.3693 24.0955 23.6747 24.2553 24.0263C24.4187 24.3778 24.5021 24.7809 24.5057 25.2354C24.5021 25.9031 24.3317 26.4819 23.9943 26.9719C23.6605 27.4585 23.1775 27.8366 22.5454 28.1065C21.9169 28.3729 21.1587 28.506 20.2709 28.506C19.3902 28.506 18.6232 28.3711 17.9698 28.1012C17.3199 27.8313 16.8121 27.4318 16.4464 26.9027C16.0841 26.37 15.8942 25.7113 15.8764 24.9265H18.1083C18.1331 25.2923 18.2379 25.5977 18.4226 25.8427C18.6108 26.0842 18.8611 26.267 19.1736 26.3913C19.4897 26.5121 19.8466 26.5724 20.2443 26.5724C20.6349 26.5724 20.9741 26.5156 21.2617 26.402C21.5529 26.2884 21.7784 26.1303 21.9382 25.9279C22.098 25.7255 22.1779 25.4929 22.1779 25.2301C22.1779 24.9851 22.1051 24.7791 21.9595 24.6122C21.8174 24.4453 21.6079 24.3033 21.3309 24.1861C21.0575 24.0689 20.7219 23.9624 20.3242 23.8665L19.1363 23.5682C18.2166 23.3445 17.4904 22.9947 16.9577 22.5188C16.425 22.043 16.1605 21.402 16.164 20.5959C16.1605 19.9354 16.3363 19.3583 16.6914 18.8647C17.05 18.3711 17.5419 17.9858 18.1669 17.7088C18.7919 17.4318 19.5021 17.2933 20.2976 17.2933C21.1072 17.2933 21.8139 17.4318 22.4176 17.7088C23.0248 17.9858 23.4971 18.3711 23.8345 18.8647C24.1718 19.3583 24.3459 19.93 24.3565 20.5799H22.1459ZM26.1516 19.3441V17.4425H35.1111V19.3441H31.7712V28.3516H29.4914V19.3441H26.1516ZM37.6439 28.3516H35.1723L38.9383 17.4425H41.9106L45.6713 28.3516H43.1997L40.4671 19.9354H40.3818L37.6439 28.3516ZM37.4894 24.0636H43.3275V25.864H37.4894V24.0636ZM47.4943 28.3516V17.4425H51.7983C52.6221 17.4425 53.3253 17.5898 53.9076 17.8846C54.4936 18.1758 54.9392 18.5895 55.2446 19.1257C55.5536 19.6584 55.7081 20.2852 55.7081 21.006C55.7081 21.7305 55.5518 22.3537 55.2393 22.8757C54.9268 23.3942 54.474 23.7919 53.881 24.0689C53.2915 24.3459 52.5777 24.4844 51.7397 24.4844H48.8579V22.6307H51.3668C51.8071 22.6307 52.1729 22.5703 52.4641 22.4496C52.7553 22.3288 52.9719 22.1477 53.114 21.9062C53.2596 21.6648 53.3324 21.3647 53.3324 21.006C53.3324 20.6438 53.2596 20.3384 53.114 20.0898C52.9719 19.8413 52.7535 19.6531 52.4588 19.5252C52.1676 19.3938 51.8 19.3281 51.3561 19.3281H49.8007V28.3516H47.4943ZM53.3856 23.3871L56.0969 28.3516H53.5507L50.8981 23.3871H53.3856ZM57.4326 19.3441V17.4425H66.3921V19.3441H63.0522V28.3516H60.7724V19.3441H57.4326Z" fill="#58CC02"/>
<rect x="1.5" y="1.85156" width="79" height="43" rx="9" stroke="#E5E5E5" stroke-width="2"/>
<defs>
<filter id="filter0_dd_206_3644" x="6" y="49" width="70" height="65" filterUnits="userSpaceOnUse" color-interpolation-filters="sRGB">
<feFlood flood-opacity="0" result="BackgroundImageFix"/>
<feColorMatrix in="SourceAlpha" type="matrix" values="0 0 0 0 0 0 0 0 0 0 0 0 0 0 0 0 0 0 127 0" result="hardAlpha"/>
<feOffset dy="8"/>
<feComposite in2="hardAlpha" operator="out"/>
<feColorMatrix type="matrix" values="0 0 0 0 0.345098 0 0 0 0 0.8 0 0 0 0 0.00784314 0 0 0 1 0"/>
<feBlend mode="normal" in2="BackgroundImageFix" result="effect1_dropShadow_206_3644"/>
<feColorMatrix in="SourceAlpha" type="matrix" values="0 0 0 0 0 0 0 0 0 0 0 0 0 0 0 0 0 0 127 0" result="hardAlpha"/>
<feOffset dy="8"/>
<feComposite in2="hardAlpha" operator="out"/>
<feColorMatrix type="matrix" values="0 0 0 0 0 0 0 0 0 0 0 0 0 0 0 0 0 0 0.2 0"/>
<feBlend mode="normal" in2="effect1_dropShadow_206_3644" result="effect2_dropShadow_206_3644"/>
<feBlend mode="normal" in="SourceGraphic" in2="effect2_dropShadow_206_3644" result="shape"/>
</filter>
<clipPath id="clip0_206_3644">
<rect width="42" height="34" fill="white" transform="translate(20 60.5)"/>
</clipPath>
</defs>
</svg>
