<svg width="124" height="92" viewBox="0 0 124 92" fill="none" xmlns="http://www.w3.org/2000/svg">
<path d="M86.3761 37.875H74.1886C73.1111 37.875 72.0778 37.447 71.3159 36.6851C70.5541 35.9233 70.1261 34.8899 70.1261 33.8125C70.1261 32.7351 70.5541 31.7017 71.3159 30.9399C72.0778 30.178 73.1111 29.75 74.1886 29.75H86.3761C87.4535 29.75 88.4868 30.178 89.2487 30.9399C90.0105 31.7017 90.4386 32.7351 90.4386 33.8125C90.4386 34.8899 90.0105 35.9233 89.2487 36.6851C88.4868 37.447 87.4535 37.875 86.3761 37.875ZM49.8136 29.75H45.7511V25.6875C45.7511 24.6101 45.323 23.5767 44.5612 22.8149C43.7993 22.053 42.766 21.625 41.6886 21.625C40.6111 21.625 39.5778 22.053 38.8159 22.8149C38.0541 23.5767 37.6261 24.6101 37.6261 25.6875V29.75H33.5636C32.4861 29.75 31.4528 30.178 30.6909 30.9399C29.9291 31.7017 29.5011 32.7351 29.5011 33.8125C29.5011 34.8899 29.9291 35.9233 30.6909 36.6851C31.4528 37.447 32.4861 37.875 33.5636 37.875H37.6261V41.9375C37.6261 43.0149 38.0541 44.0483 38.8159 44.8101C39.5778 45.572 40.6111 46 41.6886 46C42.766 46 43.7993 45.572 44.5612 44.8101C45.323 44.0483 45.7511 43.0149 45.7511 41.9375V37.875H49.8136C50.891 37.875 51.9243 37.447 52.6862 36.6851C53.448 35.9233 53.8761 34.8899 53.8761 33.8125C53.8761 32.7351 53.448 31.7017 52.6862 30.9399C51.9243 30.178 50.891 29.75 49.8136 29.75ZM119.628 82.8926C118.097 85.0789 116.105 86.9035 113.794 88.2381C111.482 89.5727 108.906 90.385 106.247 90.6178C103.588 90.8505 100.911 90.4983 98.4024 89.5856C95.8941 88.673 93.6161 87.2222 91.7284 85.3352C91.6675 85.2742 91.6065 85.2133 91.5507 85.1473L71.3854 62.25H52.5964L32.4514 85.1473L32.2737 85.3352C28.8419 88.7595 24.1928 90.6842 19.3448 90.6875C16.6759 90.6865 14.0396 90.1012 11.6211 88.9726C9.20262 87.8441 7.06054 86.1996 5.34536 84.1549C3.63018 82.1101 2.38352 79.7146 1.69293 77.1367C1.00234 74.5587 0.884582 71.8608 1.34793 69.2324C1.34548 69.2088 1.34548 69.185 1.34793 69.1613L9.66082 26.4594C10.898 19.4164 14.5778 13.0347 20.0535 8.43566C25.5292 3.83664 32.4506 1.31453 39.6014 1.3125H84.3448C91.4741 1.32387 98.3742 3.83156 103.847 8.40016C109.32 12.9688 113.021 19.3098 114.306 26.3223V26.4137L122.619 69.1562C122.621 69.1799 122.621 69.2037 122.619 69.2273C123.049 71.5897 123.006 74.014 122.493 76.3597C121.979 78.7054 121.005 80.9259 119.628 82.8926ZM84.3448 54.125C90.2707 54.125 95.954 51.7709 100.144 47.5807C104.334 43.3904 106.689 37.7072 106.689 31.7812C106.689 25.8553 104.334 20.1721 100.144 15.9818C95.954 11.7916 90.2707 9.4375 84.3448 9.4375H39.6014C34.3555 9.44221 29.2792 11.2968 25.2658 14.6749C21.2523 18.0531 18.5587 22.7384 17.6589 27.9066V27.9727L9.3409 70.6746C8.97323 72.7916 9.28646 74.9707 10.2356 76.8985C11.1846 78.8262 12.7207 80.4033 14.6227 81.4029C16.5248 82.4024 18.6949 82.773 20.8208 82.4612C22.9468 82.1495 24.9192 81.1715 26.4542 79.668L47.7417 55.5012C48.1228 55.0688 48.5917 54.7224 49.117 54.4851C49.6423 54.2479 50.2121 54.1251 50.7886 54.125H84.3448ZM114.661 70.6746L110.223 47.823C107.493 52.2309 103.684 55.8692 99.1555 58.3938C94.6271 60.9184 89.5294 62.2456 84.3448 62.25H82.212L97.5479 79.673C98.7042 80.7977 100.111 81.6322 101.652 82.108C103.193 82.5838 104.825 82.6873 106.414 82.4102C109.061 81.9429 111.415 80.4453 112.96 78.2455C114.505 76.0457 115.115 73.3232 114.656 70.6746H114.661Z" fill="#FFC6C7" stroke="#FF8BA7" stroke-width="2"/>
</svg>
