<svg width="80" height="90" viewBox="0 0 80 90" fill="none" xmlns="http://www.w3.org/2000/svg">
<g clip-path="url(#clip0_206_3588)">
<path opacity="0.3" d="M76 38H4C1.79086 38 0 39.7909 0 42V74C0 76.2091 1.79086 78 4 78H76C78.2091 78 80 76.2091 80 74V42C80 39.7909 78.2091 38 76 38Z" fill="#AFAFAF"/>
<path d="M8.28906 39.7366C8.28906 34.2001 12.7772 29.7119 18.3137 29.7119H60.7559C66.2924 29.7119 70.7806 34.2001 70.7806 39.7366V66.3203C70.7806 68.5349 68.9853 70.3302 66.7707 70.3302H12.2989C10.0843 70.3302 8.28906 68.5349 8.28906 66.3203V39.7366Z" fill="#9A9A9A"/>
<path d="M6.12207 25.2273C6.12207 19.6908 10.6103 15.2026 16.1468 15.2026H63.2629C68.7994 15.2026 73.2877 19.6908 73.2877 25.2273V55.0509H6.12207V25.2273Z" fill="#9A9A9A"/>
<path d="M76.9183 42.7715H3.10938V54.2999H76.9183V42.7715Z" fill="#D8D8D8"/>
<path d="M67.0205 25.4771H74.917C76.0243 25.4771 76.9219 26.3747 76.9219 27.482V45.7771H67.0205V25.4771Z" fill="#D8D8D8"/>
<path d="M3.10938 27.482C3.10938 26.3747 4.00701 25.4771 5.11432 25.4771H11.507C12.6143 25.4771 13.512 26.3747 13.512 27.482V43.7722C13.512 44.8794 12.6143 45.7771 11.507 45.7771H5.11432C4.00701 45.7771 3.10938 44.8794 3.10938 43.7722V27.482Z" fill="#D8D8D8"/>
<path d="M6.12207 14.0049C6.12207 12.8976 7.01971 12 8.12701 12H18.6529C19.7602 12 20.6579 12.8976 20.6579 14.0049V34.5027H6.12207V14.0049Z" fill="#D8D8D8"/>
<path d="M58.752 14.0049C58.752 12.8976 59.6497 12 60.757 12H71.2829C72.3902 12 73.2879 12.8976 73.2879 14.0049V34.5027H58.752V14.0049Z" fill="#D8D8D8"/>
<path d="M6.25391 24.1446L20.602 20.5723V33.2222L6.25391 33.0464V24.1446Z" fill="#EDEDED"/>
<path d="M6.12207 31.7251H20.6579V46.2198H6.12207V31.7251Z" fill="#BFBFBF"/>
<path d="M6.12207 52.5436C6.12207 51.4363 7.01971 50.5386 8.12701 50.5386H18.6529C19.7602 50.5386 20.6579 51.4363 20.6579 52.5436V70.3903C20.6579 71.4976 19.7602 72.3953 18.6529 72.3953H8.12701C7.01971 72.3953 6.12207 71.4976 6.12207 70.3903V52.5436Z" fill="#BFBFBF"/>
<path d="M57.4346 52.5436C57.4346 51.4363 58.3323 50.5386 59.4396 50.5386H69.9655C71.0728 50.5386 71.9705 51.4363 71.9705 52.5436V70.3903C71.9705 71.4976 71.0728 72.3953 69.9655 72.3953H59.4396C58.3323 72.3953 57.4346 71.4976 57.4346 70.3903V52.5436Z" fill="#BFBFBF"/>
<path d="M73.2878 31.7251H58.752V46.2198H73.2878V31.7251Z" fill="#BFBFBF"/>
<path d="M42.4618 49.9126H36.9482V59.624H42.4618V49.9126Z" fill="#C4C4C4"/>
<path d="M20.6579 55.3081H6.12207V60.1952H20.6579V55.3081Z" fill="#9A9A9A"/>
<path d="M71.9704 55.3081H57.4346V60.1952H71.9704V55.3081Z" fill="#9A9A9A"/>
<path d="M57.4315 63.8179H20.6533V66.4494H57.4315V63.8179Z" fill="#898989"/>
<path d="M58.7472 23.6396H20.6533V26.2711H58.7472V23.6396Z" fill="#898989"/>
<path opacity="0.92" d="M57.4315 55.3081H20.6533V60.1952H57.4315V55.3081Z" fill="#888888"/>
<path opacity="0.92" d="M58.7472 35.3047H20.6533V42.7704H58.7472V35.3047Z" fill="#898989"/>
<path d="M3.10938 46.2158H76.9183V55.3007C76.9183 56.408 76.0206 57.3057 74.9133 57.3057H5.11432C4.00701 57.3057 3.10938 56.408 3.10938 55.3007V46.2158Z" fill="#BFBFBF"/>
<path d="M46.845 38.3828H31.9332C30.2722 38.3828 28.9258 39.7293 28.9258 41.3902V53.5761C28.9258 55.237 30.2722 56.5835 31.9332 56.5835H46.845C48.5059 56.5835 49.8524 55.237 49.8524 53.5761V41.3902C49.8524 39.7293 48.5059 38.3828 46.845 38.3828Z" fill="#D8D8D8"/>
<path d="M33.6017 38.3828H31.9332C30.2723 38.3828 28.9258 39.7292 28.9258 41.3902V53.5761C28.9258 55.237 30.2723 56.5835 31.9332 56.5835H32.9372C33.4626 56.5835 33.8853 56.1516 33.874 55.6263L33.6017 42.9727V38.3828Z" fill="#EDEDED"/>
<path d="M46.845 42.8633H31.9332C30.2722 42.8633 28.9258 44.2098 28.9258 45.8707V57.7966C28.9258 59.4575 30.2722 60.804 31.9332 60.804H46.845C48.5059 60.804 49.8524 59.4575 49.8524 57.7966V45.8707C49.8524 44.2098 48.5059 42.8633 46.845 42.8633Z" fill="#BFBFBF"/>
<path d="M39.0439 53.2506C41.2239 53.2506 42.9911 51.6635 42.9911 49.7059C42.9911 47.7482 41.2239 46.1611 39.0439 46.1611C36.8639 46.1611 35.0967 47.7482 35.0967 49.7059C35.0967 51.6635 36.8639 53.2506 39.0439 53.2506Z" fill="#8A8A8A"/>
<path d="M38.1466 51.6034C38.516 50.8646 39.5704 50.8646 39.9398 51.6034L41.7361 55.1958C42.0694 55.8623 41.5848 56.6466 40.8395 56.6466H37.2469C36.5017 56.6466 36.017 55.8623 36.3503 55.1958L38.1466 51.6034Z" fill="#8A8A8A"/>
<path d="M58.7852 16.3848L73.2559 12.8931V20.8578L58.7852 24.3496V16.3848Z" fill="#EDEDED"/>
<path d="M28.9267 42.3579H20.4844V46.1609H28.9267V42.3579Z" fill="#EDEDED"/>
</g>
<defs>
<clipPath id="clip0_206_3588">
<rect width="80" height="90" fill="white"/>
</clipPath>
</defs>
</svg>
