<svg width="130" height="46" viewBox="0 0 130 46" fill="none" xmlns="http://www.w3.org/2000/svg">
<rect x="1.5" y="1.97168" width="127" height="43" rx="9" fill="white"/>
<path d="M20.9966 17.5626H23.2765V25.1691C23.2765 25.8722 23.1184 26.483 22.8024 27.0015C22.4899 27.52 22.0549 27.9195 21.4973 28.2C20.9398 28.4806 20.2917 28.6208 19.5531 28.6208C18.8961 28.6208 18.2996 28.5054 17.7633 28.2746C17.2307 28.0402 16.8081 27.6851 16.4956 27.2093C16.1831 26.7298 16.0286 26.1279 16.0322 25.4035H18.328C18.3351 25.6911 18.3937 25.9379 18.5037 26.1439C18.6174 26.3463 18.7719 26.5026 18.9672 26.6127C19.166 26.7192 19.4004 26.7725 19.6703 26.7725C19.9544 26.7725 20.1941 26.7121 20.3894 26.5914C20.5883 26.4671 20.7392 26.286 20.8422 26.048C20.9451 25.8101 20.9966 25.5171 20.9966 25.1691V17.5626ZM32.4317 17.5626H34.7382V24.6471C34.7382 25.4426 34.5482 26.1386 34.1682 26.7352C33.7918 27.3318 33.2645 27.797 32.5862 28.1308C31.9079 28.461 31.1178 28.6262 30.2158 28.6262C29.3103 28.6262 28.5184 28.461 27.8401 28.1308C27.1618 27.797 26.6345 27.3318 26.2581 26.7352C25.8816 26.1386 25.6934 25.4426 25.6934 24.6471V17.5626H27.9999V24.45C27.9999 24.8655 28.0904 25.2348 28.2716 25.558C28.4562 25.8811 28.7154 26.135 29.0493 26.3197C29.3831 26.5044 29.7719 26.5967 30.2158 26.5967C30.6632 26.5967 31.0521 26.5044 31.3823 26.3197C31.7162 26.135 31.9736 25.8811 32.1547 25.558C32.3394 25.2348 32.4317 24.8655 32.4317 24.45V17.5626ZM37.1458 17.5626H39.9903L42.9945 24.8921H43.1224L46.1266 17.5626H48.9711V28.4717H46.7339V21.3712H46.6433L43.8202 28.4184H42.2967L39.4736 21.3445H39.383V28.4717H37.1458V17.5626ZM51.3814 28.4717V17.5626H55.6854C56.5128 17.5626 57.2177 17.7206 57.8001 18.0367C58.3825 18.3492 58.8264 18.7842 59.1318 19.3417C59.4407 19.8957 59.5952 20.5349 59.5952 21.2593C59.5952 21.9838 59.4389 22.623 59.1264 23.1769C58.8139 23.7309 58.3612 24.1624 57.7681 24.4713C57.1786 24.7803 56.4648 24.9347 55.6268 24.9347H52.8835V23.0864H55.2539C55.6978 23.0864 56.0636 23.01 56.3512 22.8573C56.6424 22.7011 56.859 22.4862 57.0011 22.2128C57.1467 21.9358 57.2195 21.618 57.2195 21.2593C57.2195 20.8971 57.1467 20.5811 57.0011 20.3112C56.859 20.0377 56.6424 19.8264 56.3512 19.6773C56.06 19.5246 55.6907 19.4482 55.2433 19.4482H53.6879V28.4717H51.3814ZM65.585 28.4717V17.5626H67.8915V22.0637H72.5736V17.5626H74.8748V28.4717H72.5736V23.9653H67.8915V28.4717H65.585ZM77.2864 28.4717V17.5626H84.6373V19.4642H79.5929V22.0637H84.2591V23.9653H79.5929V26.57H84.6586V28.4717H77.2864ZM86.981 28.4717V17.5626H91.2849C92.1088 17.5626 92.8119 17.71 93.3943 18.0047C93.9803 18.2959 94.4259 18.7096 94.7313 19.2458C95.0403 19.7785 95.1947 20.4053 95.1947 21.1262C95.1947 21.8506 95.0385 22.4738 94.726 22.9958C94.4135 23.5143 93.9607 23.912 93.3677 24.189C92.7782 24.466 92.0644 24.6045 91.2264 24.6045H88.3446V22.7508H90.8535C91.2938 22.7508 91.6596 22.6904 91.9508 22.5697C92.242 22.449 92.4586 22.2678 92.6006 22.0264C92.7462 21.7849 92.819 21.4848 92.819 21.1262C92.819 20.7639 92.7462 20.4585 92.6006 20.21C92.4586 19.9614 92.2402 19.7732 91.9455 19.6453C91.6543 19.5139 91.2867 19.4482 90.8428 19.4482H89.2874V28.4717H86.981ZM92.8723 23.5072L95.5836 28.4717H93.0374L90.3847 23.5072H92.8723ZM97.3347 28.4717V17.5626H104.686V19.4642H99.6412V22.0637H104.307V23.9653H99.6412V26.57H104.707V28.4717H97.3347ZM108.936 25.2011V25.02C108.94 24.3985 108.995 23.9031 109.101 23.5338C109.211 23.1645 109.371 22.8662 109.581 22.6389C109.79 22.4117 110.042 22.2057 110.337 22.021C110.557 21.879 110.754 21.7316 110.928 21.5789C111.102 21.4262 111.241 21.2575 111.344 21.0729C111.447 20.8847 111.498 20.6752 111.498 20.4443C111.498 20.1993 111.44 19.9845 111.323 19.7998C111.205 19.6151 111.047 19.4731 110.849 19.3737C110.653 19.2742 110.437 19.2245 110.199 19.2245C109.968 19.2245 109.749 19.276 109.543 19.379C109.338 19.4784 109.169 19.6276 109.037 19.8264C108.906 20.0218 108.835 20.265 108.824 20.5562H106.651C106.669 19.846 106.839 19.26 107.162 18.7984C107.486 18.3332 107.914 17.9869 108.446 17.7597C108.979 17.5289 109.567 17.4134 110.209 17.4134C110.916 17.4134 111.541 17.5306 112.084 17.765C112.628 17.9958 113.054 18.3314 113.363 18.7718C113.672 19.2121 113.826 19.743 113.826 20.3644C113.826 20.7799 113.757 21.1492 113.618 21.4724C113.483 21.792 113.293 22.0761 113.048 22.3247C112.803 22.5697 112.514 22.7916 112.18 22.9905C111.9 23.1574 111.669 23.3314 111.488 23.5125C111.31 23.6936 111.177 23.9031 111.088 24.1411C111.003 24.379 110.959 24.672 110.955 25.02V25.2011H108.936ZM109.991 28.6102C109.636 28.6102 109.332 28.4859 109.08 28.2373C108.831 27.9852 108.709 27.6833 108.713 27.3318C108.709 26.9838 108.831 26.6855 109.08 26.4369C109.332 26.1883 109.636 26.064 109.991 26.064C110.328 26.064 110.625 26.1883 110.88 26.4369C111.136 26.6855 111.266 26.9838 111.269 27.3318C111.266 27.5661 111.204 27.781 111.083 27.9763C110.966 28.1681 110.811 28.3225 110.619 28.4397C110.428 28.5534 110.218 28.6102 109.991 28.6102Z" fill="#CE82FF"/>
<rect x="1.5" y="1.97168" width="127" height="43" rx="9" stroke="#E5E5E5" stroke-width="2"/>
</svg>
