<svg width="70" height="66" viewBox="0 0 70 66" fill="none" xmlns="http://www.w3.org/2000/svg">
<rect y="29.4961" width="70" height="8" fill="#E5E5E5"/>
<rect y="29.4961" width="70" height="8" fill="black" fill-opacity="0.2"/>
<g filter="url(#filter0_dd_206_3482)">
<rect y="0.996094" width="70" height="57" rx="28.5" fill="#E5E5E5"/>
</g>
<g clip-path="url(#clip0_206_3482)">
<path fill-rule="evenodd" clip-rule="evenodd" d="M34.8731 17.0342C30.9449 17.0342 27.7604 20.0201 27.7604 23.7033V25.979C27.7604 26.0346 27.7612 26.0901 27.7626 26.1453H27.7049C25.854 26.1453 24.3535 27.6458 24.3535 29.4967V38.4378C24.3535 40.2887 25.854 41.7892 27.7049 41.7892H42.0455C43.8965 41.7892 45.397 40.2887 45.397 38.4378V29.4968C45.397 27.6458 43.8965 26.1453 42.0455 26.1453H41.9837C41.9851 26.0901 41.9858 26.0346 41.9858 25.979V23.7033C41.9858 20.02 38.8014 17.0342 34.8731 17.0342ZM38.4812 26.1453C38.484 26.0902 38.4855 26.0348 38.4855 25.979V23.7033C38.4855 21.8327 36.8682 20.3162 34.8731 20.3162C32.8781 20.3162 31.2608 21.8327 31.2608 23.7033V25.979C31.2608 26.0348 31.2622 26.0902 31.2651 26.1453H38.4812Z" fill="#AFAFAF"/>
</g>
<defs>
<filter id="filter0_dd_206_3482" x="0" y="0.996094" width="70" height="65" filterUnits="userSpaceOnUse" color-interpolation-filters="sRGB">
<feFlood flood-opacity="0" result="BackgroundImageFix"/>
<feColorMatrix in="SourceAlpha" type="matrix" values="0 0 0 0 0 0 0 0 0 0 0 0 0 0 0 0 0 0 127 0" result="hardAlpha"/>
<feOffset dy="8"/>
<feComposite in2="hardAlpha" operator="out"/>
<feColorMatrix type="matrix" values="0 0 0 0 0.898039 0 0 0 0 0.898039 0 0 0 0 0.898039 0 0 0 1 0"/>
<feBlend mode="normal" in2="BackgroundImageFix" result="effect1_dropShadow_206_3482"/>
<feColorMatrix in="SourceAlpha" type="matrix" values="0 0 0 0 0 0 0 0 0 0 0 0 0 0 0 0 0 0 127 0" result="hardAlpha"/>
<feOffset dy="8"/>
<feComposite in2="hardAlpha" operator="out"/>
<feColorMatrix type="matrix" values="0 0 0 0 0 0 0 0 0 0 0 0 0 0 0 0 0 0 0.2 0"/>
<feBlend mode="normal" in2="effect1_dropShadow_206_3482" result="effect2_dropShadow_206_3482"/>
<feBlend mode="normal" in="SourceGraphic" in2="effect2_dropShadow_206_3482" result="shape"/>
</filter>
<clipPath id="clip0_206_3482">
<rect width="42" height="34" fill="white" transform="translate(14 12.4961)"/>
</clipPath>
</defs>
</svg>
