<svg width="123" height="123" viewBox="0 0 123 123" fill="none" xmlns="http://www.w3.org/2000/svg">
<path d="M117.49 62.3055H5.34033V122.831H117.49V62.3055Z" fill="#6B6B6B"/>
<path d="M98.7245 100.578H17.0674" stroke="#585858" stroke-width="4.19514"/>
<path d="M103.249 110.369H17.8008V122.831H103.249V110.369Z" fill="#BBBBBB"/>
<mask id="mask0_1156_7307" style="mask-type:alpha" maskUnits="userSpaceOnUse" x="17" y="110" width="87" height="13">
<path d="M103.249 110.369H17.8008V122.831H103.249V110.369Z" fill="#FFBC00"/>
</mask>
<g mask="url(#mask0_1156_7307)">
<path d="M103.926 106.879L64.9049 67.8582L-13.1387 145.902L25.8826 184.923L103.926 106.879Z" fill="#C9C9C9"/>
</g>
<path d="M113.017 7.12097H8.03211C4.5792 7.12097 1.7793 9.91458 1.7793 13.3612V68.5257C1.7793 71.9723 4.5792 74.7659 8.03211 74.7659H113.017C116.469 74.7659 119.269 71.9723 119.269 68.5257V13.3612C119.269 9.91458 116.469 7.12097 113.017 7.12097Z" fill="#6B6B6B"/>
<path d="M17.8008 16.0205V19.5815H103.249V16.0205H17.8008Z" fill="#585858"/>
<path d="M17.8008 40.9435V44.5045H103.249V40.9435H17.8008Z" fill="#585858"/>
<path d="M98.7245 75.6572H17.0674" stroke="#585858" stroke-width="4.19514"/>
<path d="M112.649 58.7445H5.84033V81.887H112.649V58.7445Z" fill="#BBBBBB"/>
<path d="M4.19513 0C1.87815 0 0 1.87815 0 4.19513V118.635C0 120.952 1.87815 122.831 4.19513 122.831H20.7279C23.0449 122.831 24.923 120.952 24.923 118.635V4.19513C24.923 1.87815 23.0449 0 20.7279 0H4.19513Z" fill="#BBBBBB"/>
<mask id="mask1_1156_7307" style="mask-type:alpha" maskUnits="userSpaceOnUse" x="0" y="0" width="25" height="123">
<path d="M4.19513 0C1.87815 0 0 1.87815 0 4.19513V118.635C0 120.952 1.87815 122.831 4.19513 122.831H20.7279C23.0449 122.831 24.923 120.952 24.923 118.635V4.19513C24.923 1.87815 23.0449 0 20.7279 0H4.19513Z" fill="#FFBC00"/>
</mask>
<g mask="url(#mask1_1156_7307)">
<path d="M40.0532 -4.4502L-34.5815 70.1846L-9.25325 95.5129L65.3815 20.8781L40.0532 -4.4502Z" fill="#C9C9C9"/>
</g>
<mask id="mask2_1156_7307" style="mask-type:alpha" maskUnits="userSpaceOnUse" x="0" y="0" width="25" height="123">
<path d="M4.19513 0C1.87815 0 0 1.87815 0 4.19513V118.635C0 120.952 1.87815 122.831 4.19513 122.831H20.7279C23.0449 122.831 24.923 120.952 24.923 118.635V4.19513C24.923 1.87815 23.0449 0 20.7279 0H4.19513Z" fill="#FFBC00"/>
</mask>
<g mask="url(#mask2_1156_7307)">
<path d="M25.8681 100.304L-24.062 150.234L-9.25306 165.043L40.677 115.113L25.8681 100.304Z" fill="#C9C9C9"/>
</g>
<path d="M102.103 0C99.7859 0 97.9077 1.87815 97.9077 4.19513V118.635C97.9077 120.952 99.7859 122.831 102.103 122.831H118.636C120.953 122.831 122.831 120.952 122.831 118.635V4.19513C122.831 1.87815 120.953 0 118.636 0H102.103Z" fill="#BBBBBB"/>
<mask id="mask3_1156_7307" style="mask-type:alpha" maskUnits="userSpaceOnUse" x="97" y="0" width="26" height="123">
<path d="M102.103 0C99.7859 0 97.9077 1.87815 97.9077 4.19513V118.635C97.9077 120.952 99.7859 122.831 102.103 122.831H118.636C120.953 122.831 122.831 120.952 122.831 118.635V4.19513C122.831 1.87815 120.953 0 118.636 0H102.103Z" fill="#FFBC00"/>
</mask>
<g mask="url(#mask3_1156_7307)">
<path d="M125.195 13.6572L56.7729 82.0791L92.7507 118.057L161.173 49.635L125.195 13.6572Z" fill="#C9C9C9"/>
</g>
<path d="M48.6986 51.6245C46.3816 51.6245 44.5034 53.5027 44.5034 55.8196V88.3729C44.5034 90.6899 46.3816 92.568 48.6986 92.568H74.1318C76.4488 92.568 78.327 90.6899 78.327 88.3729V55.8196C78.327 53.5027 76.4488 51.6245 74.1318 51.6245H48.6986Z" fill="#BBBBBB"/>
<path d="M69.4257 67.0528C69.4257 71.6406 65.8395 75.3601 61.4155 75.3601C56.9915 75.3601 53.4053 71.6406 53.4053 67.0528C53.4053 62.465 56.9915 58.7455 61.4155 58.7455C65.8395 58.7455 69.4257 62.465 69.4257 67.0528Z" fill="#8F8F8F"/>
<path d="M68.1879 81.088C67.4646 79.0272 66.8095 73.9103 65.1686 73.0788C62.6353 71.7959 59.5772 71.4002 57.1205 73.6269C56.0067 74.6357 55.4041 79.4387 54.8204 81.1027C54.3784 82.3615 55.3127 83.6801 56.6471 83.6801L66.3612 83.6654C67.6955 83.6654 68.6299 82.3468 68.1879 81.088Z" fill="#8F8F8F"/>
<path d="M16.0216 70.3157C16.0216 72.7734 14.029 74.766 11.5713 74.766C9.11368 74.766 7.12109 72.7734 7.12109 70.3157C7.12109 67.8581 9.11368 65.8655 11.5713 65.8655C14.029 65.8655 16.0216 67.8581 16.0216 70.3157Z" fill="#BBBBBB"/>
<path d="M16.0216 109.48C16.0216 111.937 14.029 113.93 11.5713 113.93C9.11368 113.93 7.12109 111.937 7.12109 109.48C7.12109 107.022 9.11368 105.03 11.5713 105.03C14.029 105.03 16.0216 107.022 16.0216 109.48Z" fill="#BBBBBB"/>
<path d="M115.71 109.48C115.71 111.937 113.717 113.93 111.259 113.93C108.802 113.93 106.809 111.937 106.809 109.48C106.809 107.022 108.802 105.03 111.259 105.03C113.717 105.03 115.71 107.022 115.71 109.48Z" fill="#BBBBBB"/>
<path d="M115.71 70.3157C115.71 72.7734 113.717 74.766 111.259 74.766C108.802 74.766 106.809 72.7734 106.809 70.3157C106.809 67.8581 108.802 65.8655 111.259 65.8655C113.717 65.8655 115.71 67.8581 115.71 70.3157Z" fill="#BBBBBB"/>
<path d="M16.0216 31.1528C16.0216 33.6104 14.029 35.603 11.5713 35.603C9.11368 35.603 7.12109 33.6104 7.12109 31.1528C7.12109 28.6951 9.11368 26.7025 11.5713 26.7025C14.029 26.7025 16.0216 28.6951 16.0216 31.1528Z" fill="#BBBBBB"/>
<path d="M115.71 31.1528C115.71 33.6104 113.717 35.603 111.259 35.603C108.802 35.603 106.809 33.6104 106.809 31.1528C106.809 28.6951 108.802 26.7025 111.259 26.7025C113.717 26.7025 115.71 28.6951 115.71 31.1528Z" fill="#BBBBBB"/>
</svg>
