<svg width="130" height="149" viewBox="0 0 130 149" fill="none" xmlns="http://www.w3.org/2000/svg">
<path d="M5.62646 79H123.82V148.415H5.62646V79Z" fill="#AA562A"/>
<path d="M54.0799 0H77.1182C79.5571 0 81.5457 1.98865 81.5457 4.42755V14.3333C81.5457 16.7722 79.5571 18.7608 77.1182 18.7608H54.0799C51.641 18.7608 49.6523 16.7722 49.6523 14.3333V4.42755C49.6523 1.98865 51.641 0 54.0799 0Z" fill="#FFBC00"/>
<path d="M10.2545 7.50439H119.067C120.099 7.50439 120.943 8.34863 120.943 9.38048V16.8848C120.943 17.9166 120.099 18.7609 119.067 18.7609H10.2545C9.22266 18.7609 8.37842 17.9166 8.37842 16.8848V9.38048C8.37842 8.34863 9.22266 7.50439 10.2545 7.50439Z" fill="#FFBC00"/>
<path d="M11.249 15.0085H118.073C121.731 15.0085 124.696 17.9728 124.696 21.6311V77.801C124.696 81.4593 121.731 84.4235 118.073 84.4235H11.249C7.59067 84.4235 4.62646 81.4593 4.62646 77.801V21.6311C4.62646 17.9728 7.59067 15.0085 11.249 15.0085Z" fill="#854623"/>
<path d="M11.249 15.0085H118.073C121.731 15.0085 124.696 17.9728 124.696 21.6311V77.801C124.696 81.4593 121.731 84.4235 118.073 84.4235H11.249C7.59067 84.4235 4.62646 81.4593 4.62646 77.801V21.6311C4.62646 17.9728 7.59067 15.0085 11.249 15.0085Z" stroke="#AA562A" stroke-width="8.84197"/>
<path d="M15.7739 127.181V122.754H106.164V127.181H15.7739Z" fill="#8F4720"/>
<path d="M15.7739 102.793V98.365H106.164V102.793H15.7739Z" fill="#8F4720"/>
<mask id="mask0_1138_7087" style="mask-type:luminance" maskUnits="userSpaceOnUse" x="18" y="138" width="91" height="11">
<path d="M18.7607 138.785H108.813V148.165H18.7607V138.785Z" fill="white"/>
</mask>
<g mask="url(#mask0_1138_7087)">
<path d="M18.7607 138.785H108.813V148.165H18.7607V138.785Z" fill="#FFBC00"/>
<mask id="mask1_1138_7087" style="mask-type:alpha" maskUnits="userSpaceOnUse" x="18" y="138" width="91" height="11">
<path d="M18.7607 138.785H108.813V148.165H18.7607V138.785Z" fill="#FF0000"/>
<path d="M18.7607 138.785H108.813V148.165H18.7607V138.785Z" fill="#FFBC00"/>
</mask>
<g mask="url(#mask1_1138_7087)">
<path d="M94.3686 115.729L110.297 131.657L74.4821 167.472L58.5542 151.544L94.3686 115.729Z" fill="#FFD300"/>
</g>
<mask id="mask2_1138_7087" style="mask-type:alpha" maskUnits="userSpaceOnUse" x="18" y="138" width="91" height="11">
<path d="M18.7607 138.785H108.813V148.165H18.7607V138.785Z" fill="#FF0000"/>
<path d="M18.7607 138.785H108.813V148.165H18.7607V138.785Z" fill="#FFBC00"/>
</mask>
<g mask="url(#mask2_1138_7087)">
<path d="M38.0864 115.729L54.0143 131.657L18.1999 167.472L2.27197 151.544L38.0864 115.729Z" fill="#FFD300"/>
</g>
</g>
<mask id="mask3_1138_7087" style="mask-type:luminance" maskUnits="userSpaceOnUse" x="0" y="73" width="27" height="76">
<path d="M0 73.1217H26.2651V148.165H0V73.1217Z" fill="white"/>
</mask>
<g mask="url(#mask3_1138_7087)">
<path d="M4.42755 73.1217H21.8376C24.2765 73.1217 26.2651 75.1103 26.2651 77.5493V143.737C26.2651 146.176 24.2765 148.165 21.8376 148.165H4.42755C1.98865 148.165 0 146.176 0 143.737V77.5493C0 75.1103 1.98865 73.1217 4.42755 73.1217Z" fill="#FFBC00"/>
<mask id="mask4_1138_7087" style="mask-type:alpha" maskUnits="userSpaceOnUse" x="0" y="73" width="27" height="76">
<path d="M4.42755 73.1217H21.8376C24.2765 73.1217 26.2651 75.1104 26.2651 77.5493V143.737C26.2651 146.176 24.2765 148.165 21.8376 148.165H4.42755C1.98865 148.165 0 146.176 0 143.737V77.5493C0 75.1104 1.98865 73.1217 4.42755 73.1217Z" fill="#FF0000"/>
<path d="M4.42755 73.1217H21.8376C24.2765 73.1217 26.2651 75.1103 26.2651 77.5493V143.737C26.2651 146.176 24.2765 148.165 21.8376 148.165H4.42755C1.98865 148.165 0 146.176 0 143.737V77.5493C0 75.1103 1.98865 73.1217 4.42755 73.1217Z" fill="#FFBC00"/>
</mask>
<g mask="url(#mask4_1138_7087)">
<path d="M-25.3594 122.531L27.2647 69.9073L42.8737 85.5163L-9.75038 138.14L-25.3594 122.531Z" fill="#FFD200"/>
</g>
<mask id="mask5_1138_7087" style="mask-type:alpha" maskUnits="userSpaceOnUse" x="0" y="73" width="27" height="76">
<path d="M4.42755 73.1217H21.8376C24.2765 73.1217 26.2651 75.1104 26.2651 77.5493V143.737C26.2651 146.176 24.2765 148.165 21.8376 148.165H4.42755C1.98865 148.165 0 146.176 0 143.737V77.5493C0 75.1104 1.98865 73.1217 4.42755 73.1217Z" fill="#FF0000"/>
<path d="M4.42755 73.1217H21.8376C24.2765 73.1217 26.2651 75.1103 26.2651 77.5493V143.737C26.2651 146.176 24.2765 148.165 21.8376 148.165H4.42755C1.98865 148.165 0 146.176 0 143.737V77.5493C0 75.1103 1.98865 73.1217 4.42755 73.1217Z" fill="#FFBC00"/>
</mask>
<g mask="url(#mask5_1138_7087)">
<path d="M-25.3594 173.296L27.2647 120.672L42.8737 136.281L-9.75038 188.905L-25.3594 173.296Z" fill="#FFD200"/>
</g>
</g>
<mask id="mask6_1138_7087" style="mask-type:luminance" maskUnits="userSpaceOnUse" x="103" y="73" width="27" height="76">
<path d="M103.185 73.1217H129.45V148.165H103.185V73.1217Z" fill="white"/>
</mask>
<g mask="url(#mask6_1138_7087)">
<path d="M107.612 73.1217H125.022C127.461 73.1217 129.45 75.1103 129.45 77.5493V143.737C129.45 146.176 127.461 148.165 125.022 148.165H107.612C105.173 148.165 103.185 146.176 103.185 143.737V77.5493C103.185 75.1103 105.173 73.1217 107.612 73.1217Z" fill="#FFBC00"/>
<mask id="mask7_1138_7087" style="mask-type:alpha" maskUnits="userSpaceOnUse" x="103" y="73" width="27" height="76">
<path d="M107.612 73.1217H125.022C127.461 73.1217 129.45 75.1104 129.45 77.5493V143.737C129.45 146.176 127.461 148.165 125.022 148.165H107.612C105.173 148.165 103.185 146.176 103.185 143.737V77.5493C103.185 75.1104 105.173 73.1217 107.612 73.1217Z" fill="#FF0000"/>
<path d="M107.612 73.1217H125.022C127.461 73.1217 129.45 75.1103 129.45 77.5493V143.737C129.45 146.176 127.461 148.165 125.022 148.165H107.612C105.173 148.165 103.185 146.176 103.185 143.737V77.5493C103.185 75.1103 105.173 73.1217 107.612 73.1217Z" fill="#FFBC00"/>
</mask>
<g mask="url(#mask7_1138_7087)">
<path d="M77.8081 123.195L130.432 70.5706L150.375 90.5133L97.7508 143.137L77.8081 123.195Z" fill="#FFD200"/>
</g>
</g>
<path d="M51.3294 73.1217H78.1198C80.5587 73.1217 82.5474 75.1104 82.5474 77.5493V111.844C82.5474 114.283 80.5587 116.272 78.1198 116.272H51.3294C48.8905 116.272 46.9019 114.283 46.9019 111.844V77.5493C46.9019 75.1104 48.8905 73.1217 51.3294 73.1217Z" fill="#FFBC00"/>
<mask id="mask8_1138_7087" style="mask-type:luminance" maskUnits="userSpaceOnUse" x="56" y="80" width="18" height="27">
<path d="M56.2822 80.626H73.167V106.891H56.2822V80.626Z" fill="white"/>
</mask>
<g mask="url(#mask8_1138_7087)">
<path d="M64.7246 80.6263C69.3839 80.6263 73.167 84.5493 73.167 89.3811C73.167 94.2128 69.3839 98.1358 64.7246 98.1358C60.0652 98.1358 56.2822 94.2128 56.2822 89.3811C56.2822 84.5493 60.0652 80.6263 64.7246 80.6263Z" fill="#DB8500"/>
<path d="M68.9681 94.5684L71.8197 102.654C72.4013 104.305 71.5195 106.125 69.8686 106.707C69.5309 106.838 69.1744 106.894 68.818 106.894H60.4882C58.7246 106.894 57.2988 105.468 57.2988 103.705C57.2988 103.349 57.3551 102.992 57.4864 102.654L60.3193 94.5684C61.1636 92.1671 63.7713 90.9101 66.1727 91.7543C67.4859 92.2046 68.5178 93.2552 68.9681 94.5684Z" fill="#DB8500"/>
</g>
<mask id="mask9_1138_7087" style="mask-type:luminance" maskUnits="userSpaceOnUse" x="56" y="80" width="18" height="28">
<path d="M56.2803 80.876H73.165V107.141H56.2803V80.876Z" fill="white"/>
</mask>
<g mask="url(#mask9_1138_7087)">
<path d="M64.7226 80.8763C69.382 80.8763 73.165 84.7993 73.165 89.6311C73.165 94.4628 69.382 98.3858 64.7226 98.3858C60.0633 98.3858 56.2803 94.4628 56.2803 89.6311C56.2803 84.7993 60.0633 80.8763 64.7226 80.8763Z" fill="#DB8500"/>
<path d="M68.9661 94.8184L71.8177 102.904C72.3993 104.555 71.5176 106.375 69.8666 106.957C69.5289 107.088 69.1725 107.144 68.816 107.144H60.4862C58.7227 107.144 57.2969 105.718 57.2969 103.955C57.2969 103.599 57.3532 103.242 57.4845 102.904L60.3174 94.8184C61.1616 92.4171 63.7694 91.1601 66.1707 92.0043C67.484 92.4546 68.5158 93.5052 68.9661 94.8184Z" fill="#DB8500"/>
</g>
<path d="M14.0686 82.7522C16.6571 82.7522 18.7588 84.8539 18.7588 87.4424C18.7588 90.0309 16.6571 92.1326 14.0686 92.1326C11.4801 92.1326 9.37842 90.0309 9.37842 87.4424C9.37842 84.8539 11.4801 82.7522 14.0686 82.7522Z" fill="#F8A201"/>
<path d="M14.0686 129.654C16.6571 129.654 18.7588 131.756 18.7588 134.344C18.7588 136.933 16.6571 139.035 14.0686 139.035C11.4801 139.035 9.37842 136.933 9.37842 134.344C9.37842 131.756 11.4801 129.654 14.0686 129.654Z" fill="#F8A201"/>
<path d="M117.253 129.654C119.842 129.654 121.943 131.756 121.943 134.344C121.943 136.933 119.842 139.035 117.253 139.035C114.665 139.035 112.563 136.933 112.563 134.344C112.563 131.756 114.665 129.654 117.253 129.654Z" fill="#F8A201"/>
<path d="M117.253 82.7522C119.842 82.7522 121.943 84.8539 121.943 87.4424C121.943 90.0309 119.842 92.1326 117.253 92.1326C114.665 92.1326 112.563 90.0309 112.563 87.4424C112.563 84.8539 114.665 82.7522 117.253 82.7522Z" fill="#F8A201"/>
</svg>
